<?xml version="1.0" standalone="no"?><!DOCTYPE svg PUBLIC "-//W3C//DTD SVG 1.1//EN" "http://www.w3.org/Graphics/SVG/1.1/DTD/svg11.dtd"><svg t="1718778764905" class="icon" viewBox="0 0 1024 1024" version="1.1" xmlns="http://www.w3.org/2000/svg" p-id="8897" xmlns:xlink="http://www.w3.org/1999/xlink" width="200" height="200"><path d="M512 704c-95.8 0-186-28.1-254.2-79.2-33.7-25.3-60.3-54.9-78.9-88-19.6-34.8-29.6-71.9-29.6-110.1 0-66.2 30.4-129.5 85.9-179.5-0.4-4.1-0.6-8.3-0.6-12.5 0-70.6 57.4-128 128-128 37.9 0 73.6 16.8 97.8 45.4 34-3.7 69-3.7 103 0 24.2-28.7 59.9-45.4 97.8-45.4 70.6 0 128 57.4 128 128 0 4.2-0.2 8.3-0.6 12.5 55.5 50 85.9 113.3 85.9 179.5 0 38.3-10 75.3-29.6 110.1-18.7 33.1-45.2 62.7-78.9 88-68 51.1-158.2 79.2-254 79.2zM362.7 149.3c-47.1 0-85.3 38.3-85.3 85.3 0 5.6 0.6 11.3 1.6 16.8l2.5 12.4-9.7 8.1c-51.4 42.9-79.7 97.8-79.7 154.7 0 61.5 32.5 119.7 91.4 164 60.8 45.6 142 70.7 228.6 70.7s167.8-25.1 228.6-70.7c59-44.2 91.4-102.5 91.4-164 0-56.8-28.3-111.8-79.7-154.7l-9.7-8.1 2.5-12.4c1.1-5.5 1.6-11.1 1.6-16.8 0-47.1-38.3-85.3-85.3-85.3-28.3 0-54.7 14-70.6 37.4l-7.4 10.9-13.1-1.8c-38.1-5.2-78.3-5.2-116.4 0l-13.1 1.8-7.4-10.9c-16.1-23.4-42.5-37.4-70.8-37.4z" fill="#979797" p-id="8898"></path><path d="M512 618.7c-61.3 0-119.2-16.9-163.1-47.6-46.2-32.3-71.6-76-71.6-123.1 0-11.8 9.6-21.3 21.3-21.3S320 436.2 320 448c0 32.7 19 64 53.4 88.1 36.7 25.7 86 39.9 138.6 39.9 52.6 0 101.9-14.2 138.6-39.9C685 512 704 480.7 704 448c0-11.8 9.6-21.3 21.3-21.3s21.3 9.6 21.3 21.3c0 47.1-25.4 90.8-71.6 123.1-43.8 30.7-101.7 47.6-163 47.6z" fill="#979797" p-id="8899"></path><path d="M511.9 778.8c11.8 0 21.3 9.6 21.3 21.3v106.7h-42.7V800.1c0-11.8 9.6-21.3 21.4-21.3z" fill="#979797" p-id="8900"></path><path d="M768.2 939.4h-512c-35.3 0-64-28.7-64-64s28.7-64 64-64H320V854h-63.8c-11.8 0-21.3 9.6-21.3 21.3 0 11.8 9.6 21.3 21.3 21.3h512c11.8 0 21.3-9.6 21.3-21.3 0-11.8-9.6-21.3-21.3-21.3h-63.8v-42.7h63.8c35.3 0 64 28.7 64 64 0 35.4-28.7 64.1-64 64.1z" fill="#979797" p-id="8901"></path><path d="M384 852.5c-11.8 0-21.3-9.6-21.3-21.3V768c0-38 14.3-74.3 40.3-102 8.1-8.6 21.6-9 30.2-1 8.6 8.1 9 21.6 1 30.2-18.6 19.8-28.8 45.7-28.8 72.9v63.2c-0.1 11.7-9.6 21.2-21.4 21.2zM640 849c-11.8 0-21.3-9.6-21.3-21.3V768c0-26.5-9.8-51.9-27.5-71.5-7.9-8.7-7.2-22.2 1.5-30.1 8.7-7.9 22.2-7.2 30.1 1.5 24.9 27.5 38.6 63.1 38.6 100.1v59.7c-0.1 11.8-9.6 21.3-21.4 21.3z" fill="#979797" p-id="8902"></path><path d="M320 854.3h-42.7v-43.7c0-58.8 47.9-106.7 106.7-106.7v42.7c-35.3 0-64 28.7-64 64v43.7zM746.7 854.4H704v-43.7c0-35.3-28.7-64-64-64V704c58.8 0 106.7 47.9 106.7 106.7v43.7z" fill="#979797" p-id="8903"></path><path d="M639.9 939.2h-256c-35.3 0-64-28.7-64-64s28.7-64 64-64h21.5v42.7h-21.5c-11.8 0-21.3 9.6-21.3 21.3 0 11.8 9.6 21.3 21.3 21.3h256c11.8 0 21.3-9.6 21.3-21.3 0-11.8-9.6-21.3-21.3-21.3h-21.3v-42.7h21.3c35.3 0 64 28.7 64 64 0 35.2-28.7 64-64 64z" fill="#979797" p-id="8904"></path><path d="M362.7 234.7m-21.3 0a21.3 21.3 0 1 0 42.6 0 21.3 21.3 0 1 0-42.6 0Z" fill="#979797" p-id="8905"></path><path d="M362.7 262.4c-15.3 0-27.7-12.4-27.7-27.7 0-15.3 12.4-27.7 27.7-27.7 15.3 0 27.7 12.4 27.7 27.7 0 15.3-12.4 27.7-27.7 27.7z m0-42.7c-8.2 0-14.9 6.7-14.9 14.9s6.7 14.9 14.9 14.9 14.9-6.7 14.9-14.9-6.7-14.9-14.9-14.9z" fill="#979797" p-id="8906"></path><path d="M661.3 234.7m-21.3 0a21.3 21.3 0 1 0 42.6 0 21.3 21.3 0 1 0-42.6 0Z" fill="#979797" p-id="8907"></path><path d="M661.3 262.4c-15.3 0-27.7-12.4-27.7-27.7 0-15.3 12.4-27.7 27.7-27.7 15.3 0 27.7 12.4 27.7 27.7 0.1 15.3-12.4 27.7-27.7 27.7z m0-42.7c-8.2 0-14.9 6.7-14.9 14.9s6.7 14.9 14.9 14.9 14.9-6.7 14.9-14.9c0.1-8.2-6.6-14.9-14.9-14.9z" fill="#979797" p-id="8908"></path></svg>